<mxfile host="app.diagrams.net" modified="2023-12-29T20:31:28.363Z" agent="Mozilla/5.0 (Windows NT 10.0; Win64; x64) AppleWebKit/537.36 (KHTML, like Gecko) Chrome/120.0.0.0 Safari/537.36" etag="mJFlDr_YYLK9ZOnsUGVj" version="22.1.16" type="github">
  <diagram id="yPxyJZ8AM_hMuL3Unpa9" name="gitflow">
    <mxGraphModel dx="880" dy="1911" grid="1" gridSize="10" guides="1" tooltips="1" connect="1" arrows="1" fold="1" page="1" pageScale="1" pageWidth="850" pageHeight="1100" math="0" shadow="0">
      <root>
        <mxCell id="0" />
        <mxCell id="1" parent="0" />
        <mxCell id="gPe9OrkZvvVKV1r3iufT-178" value="SERVICE" style="rounded=0;whiteSpace=wrap;html=1;fillColor=#d5e8d4;strokeColor=#82b366;" vertex="1" parent="1">
          <mxGeometry x="10" y="30" width="210" height="40" as="geometry" />
        </mxCell>
        <mxCell id="gPe9OrkZvvVKV1r3iufT-179" value="COMPONENT" style="rounded=0;whiteSpace=wrap;html=1;fillColor=#ffe6cc;strokeColor=#d79b00;" vertex="1" parent="1">
          <mxGeometry x="10" y="80" width="210" height="40" as="geometry" />
        </mxCell>
        <mxCell id="gPe9OrkZvvVKV1r3iufT-180" value="GUARD" style="rounded=0;whiteSpace=wrap;html=1;fillColor=#e1d5e7;strokeColor=#9673a6;" vertex="1" parent="1">
          <mxGeometry x="10" y="130" width="210" height="40" as="geometry" />
        </mxCell>
        <mxCell id="gPe9OrkZvvVKV1r3iufT-181" value="CLASS" style="rounded=0;whiteSpace=wrap;html=1;fillColor=#f8cecc;strokeColor=#b85450;" vertex="1" parent="1">
          <mxGeometry x="10" y="-20" width="210" height="40" as="geometry" />
        </mxCell>
        <mxCell id="gPe9OrkZvvVKV1r3iufT-182" value="COMPONENTS" style="swimlane;labelBackgroundColor=none;strokeColor=#d79b00;rounded=0;fillColor=#ffe6cc;" vertex="1" parent="1">
          <mxGeometry x="10" y="1110" width="730" height="330" as="geometry" />
        </mxCell>
        <mxCell id="gPe9OrkZvvVKV1r3iufT-343" value="" style="group;fixDash=0;movable=1;fillColor=#ffe6cc;strokeColor=#d79b00;" vertex="1" connectable="0" parent="gPe9OrkZvvVKV1r3iufT-182">
          <mxGeometry x="20" y="40" width="120" height="70" as="geometry" />
        </mxCell>
        <mxCell id="gPe9OrkZvvVKV1r3iufT-349" value="" style="group" vertex="1" connectable="0" parent="gPe9OrkZvvVKV1r3iufT-343">
          <mxGeometry width="120" height="70" as="geometry" />
        </mxCell>
        <mxCell id="gPe9OrkZvvVKV1r3iufT-344" value="COMPONENT" style="rounded=0;whiteSpace=wrap;html=1;fillColor=#ffe6cc;strokeColor=#d79b00;fixDash=0;movable=1;" vertex="1" parent="gPe9OrkZvvVKV1r3iufT-349">
          <mxGeometry width="120" height="20" as="geometry" />
        </mxCell>
        <mxCell id="gPe9OrkZvvVKV1r3iufT-345" value="LOGIN" style="rounded=0;whiteSpace=wrap;html=1;fixDash=0;movable=1;" vertex="1" parent="gPe9OrkZvvVKV1r3iufT-349">
          <mxGeometry y="20" width="120" height="50" as="geometry" />
        </mxCell>
        <mxCell id="gPe9OrkZvvVKV1r3iufT-365" value="" style="group" vertex="1" connectable="0" parent="gPe9OrkZvvVKV1r3iufT-182">
          <mxGeometry x="20" y="120" width="120" height="70" as="geometry" />
        </mxCell>
        <mxCell id="gPe9OrkZvvVKV1r3iufT-366" value="COMPONENT" style="rounded=0;whiteSpace=wrap;html=1;fillColor=#ffe6cc;strokeColor=#d79b00;fixDash=0;movable=1;" vertex="1" parent="gPe9OrkZvvVKV1r3iufT-365">
          <mxGeometry width="120" height="20" as="geometry" />
        </mxCell>
        <mxCell id="gPe9OrkZvvVKV1r3iufT-367" value="OUTLET PREVIEW" style="rounded=0;whiteSpace=wrap;html=1;fixDash=0;movable=1;" vertex="1" parent="gPe9OrkZvvVKV1r3iufT-365">
          <mxGeometry y="20" width="120" height="50" as="geometry" />
        </mxCell>
        <mxCell id="gPe9OrkZvvVKV1r3iufT-362" value="" style="group" vertex="1" connectable="0" parent="gPe9OrkZvvVKV1r3iufT-182">
          <mxGeometry x="540" y="40" width="120" height="70" as="geometry" />
        </mxCell>
        <mxCell id="gPe9OrkZvvVKV1r3iufT-363" value="COMPONENT" style="rounded=0;whiteSpace=wrap;html=1;fillColor=#ffe6cc;strokeColor=#d79b00;fixDash=0;movable=1;" vertex="1" parent="gPe9OrkZvvVKV1r3iufT-362">
          <mxGeometry width="120" height="20" as="geometry" />
        </mxCell>
        <mxCell id="gPe9OrkZvvVKV1r3iufT-364" value="IN PROMOTION&lt;br&gt;PREVIEW" style="rounded=0;whiteSpace=wrap;html=1;fixDash=0;movable=1;" vertex="1" parent="gPe9OrkZvvVKV1r3iufT-362">
          <mxGeometry y="20" width="120" height="50" as="geometry" />
        </mxCell>
        <mxCell id="gPe9OrkZvvVKV1r3iufT-359" value="" style="group" vertex="1" connectable="0" parent="gPe9OrkZvvVKV1r3iufT-182">
          <mxGeometry x="280" y="40" width="120" height="70" as="geometry" />
        </mxCell>
        <mxCell id="gPe9OrkZvvVKV1r3iufT-360" value="COMPONENT" style="rounded=0;whiteSpace=wrap;html=1;fillColor=#ffe6cc;strokeColor=#d79b00;fixDash=0;movable=1;" vertex="1" parent="gPe9OrkZvvVKV1r3iufT-359">
          <mxGeometry width="120" height="20" as="geometry" />
        </mxCell>
        <mxCell id="gPe9OrkZvvVKV1r3iufT-361" value="PRODUCTS CARDS" style="rounded=0;whiteSpace=wrap;html=1;fixDash=0;movable=1;" vertex="1" parent="gPe9OrkZvvVKV1r3iufT-359">
          <mxGeometry y="20" width="120" height="50" as="geometry" />
        </mxCell>
        <mxCell id="gPe9OrkZvvVKV1r3iufT-356" value="" style="group" vertex="1" connectable="0" parent="gPe9OrkZvvVKV1r3iufT-182">
          <mxGeometry x="410" y="40" width="120" height="70" as="geometry" />
        </mxCell>
        <mxCell id="gPe9OrkZvvVKV1r3iufT-357" value="COMPONENT" style="rounded=0;whiteSpace=wrap;html=1;fillColor=#ffe6cc;strokeColor=#d79b00;fixDash=0;movable=1;" vertex="1" parent="gPe9OrkZvvVKV1r3iufT-356">
          <mxGeometry width="120" height="20" as="geometry" />
        </mxCell>
        <mxCell id="gPe9OrkZvvVKV1r3iufT-358" value="PRODUCTS COMPLET INFO" style="rounded=0;whiteSpace=wrap;html=1;fixDash=0;movable=1;" vertex="1" parent="gPe9OrkZvvVKV1r3iufT-356">
          <mxGeometry y="20" width="120" height="50" as="geometry" />
        </mxCell>
        <mxCell id="gPe9OrkZvvVKV1r3iufT-353" value="" style="group" vertex="1" connectable="0" parent="gPe9OrkZvvVKV1r3iufT-182">
          <mxGeometry x="150" y="120" width="120" height="70" as="geometry" />
        </mxCell>
        <mxCell id="gPe9OrkZvvVKV1r3iufT-354" value="COMPONENT" style="rounded=0;whiteSpace=wrap;html=1;fillColor=#ffe6cc;strokeColor=#d79b00;fixDash=0;movable=1;" vertex="1" parent="gPe9OrkZvvVKV1r3iufT-353">
          <mxGeometry width="120" height="20" as="geometry" />
        </mxCell>
        <mxCell id="gPe9OrkZvvVKV1r3iufT-355" value="PRODUCTS DIVISION BAR" style="rounded=0;whiteSpace=wrap;html=1;fixDash=0;movable=1;" vertex="1" parent="gPe9OrkZvvVKV1r3iufT-353">
          <mxGeometry y="20" width="120" height="50" as="geometry" />
        </mxCell>
        <mxCell id="gPe9OrkZvvVKV1r3iufT-350" value="" style="group" vertex="1" connectable="0" parent="gPe9OrkZvvVKV1r3iufT-182">
          <mxGeometry x="150" y="40" width="120" height="70" as="geometry" />
        </mxCell>
        <mxCell id="gPe9OrkZvvVKV1r3iufT-351" value="COMPONENT" style="rounded=0;whiteSpace=wrap;html=1;fillColor=#ffe6cc;strokeColor=#d79b00;fixDash=0;movable=1;" vertex="1" parent="gPe9OrkZvvVKV1r3iufT-350">
          <mxGeometry width="120" height="20" as="geometry" />
        </mxCell>
        <mxCell id="gPe9OrkZvvVKV1r3iufT-352" value="SIGN UP&amp;nbsp;" style="rounded=0;whiteSpace=wrap;html=1;fixDash=0;movable=1;" vertex="1" parent="gPe9OrkZvvVKV1r3iufT-350">
          <mxGeometry y="20" width="120" height="50" as="geometry" />
        </mxCell>
        <mxCell id="gPe9OrkZvvVKV1r3iufT-369" value="" style="group" vertex="1" connectable="0" parent="gPe9OrkZvvVKV1r3iufT-182">
          <mxGeometry x="280" y="120" width="120" height="70" as="geometry" />
        </mxCell>
        <mxCell id="gPe9OrkZvvVKV1r3iufT-370" value="COMPONENT" style="rounded=0;whiteSpace=wrap;html=1;fillColor=#ffe6cc;strokeColor=#d79b00;fixDash=0;movable=1;" vertex="1" parent="gPe9OrkZvvVKV1r3iufT-369">
          <mxGeometry width="120" height="20" as="geometry" />
        </mxCell>
        <mxCell id="gPe9OrkZvvVKV1r3iufT-371" value="CAROUSEL &lt;br&gt;IPHONE&amp;nbsp;" style="rounded=0;whiteSpace=wrap;html=1;fixDash=0;movable=1;" vertex="1" parent="gPe9OrkZvvVKV1r3iufT-369">
          <mxGeometry y="20" width="120" height="50" as="geometry" />
        </mxCell>
        <mxCell id="gPe9OrkZvvVKV1r3iufT-372" value="" style="group" vertex="1" connectable="0" parent="gPe9OrkZvvVKV1r3iufT-182">
          <mxGeometry x="410" y="120" width="120" height="70" as="geometry" />
        </mxCell>
        <mxCell id="gPe9OrkZvvVKV1r3iufT-373" value="COMPONENT" style="rounded=0;whiteSpace=wrap;html=1;fillColor=#ffe6cc;strokeColor=#d79b00;fixDash=0;movable=1;" vertex="1" parent="gPe9OrkZvvVKV1r3iufT-372">
          <mxGeometry width="120" height="20" as="geometry" />
        </mxCell>
        <mxCell id="gPe9OrkZvvVKV1r3iufT-374" value="PRODUCTS APPLE CAROUSEL" style="rounded=0;whiteSpace=wrap;html=1;fixDash=0;movable=1;" vertex="1" parent="gPe9OrkZvvVKV1r3iufT-372">
          <mxGeometry y="20" width="120" height="50" as="geometry" />
        </mxCell>
        <mxCell id="gPe9OrkZvvVKV1r3iufT-375" value="" style="group" vertex="1" connectable="0" parent="gPe9OrkZvvVKV1r3iufT-182">
          <mxGeometry x="540" y="120" width="120" height="70" as="geometry" />
        </mxCell>
        <mxCell id="gPe9OrkZvvVKV1r3iufT-376" value="COMPONENT" style="rounded=0;whiteSpace=wrap;html=1;fillColor=#ffe6cc;strokeColor=#d79b00;fixDash=0;movable=1;" vertex="1" parent="gPe9OrkZvvVKV1r3iufT-375">
          <mxGeometry width="120" height="20" as="geometry" />
        </mxCell>
        <mxCell id="gPe9OrkZvvVKV1r3iufT-377" value="PRODUCTS AUDIO CAROUSEL" style="rounded=0;whiteSpace=wrap;html=1;fixDash=0;movable=1;" vertex="1" parent="gPe9OrkZvvVKV1r3iufT-375">
          <mxGeometry y="20" width="120" height="50" as="geometry" />
        </mxCell>
        <mxCell id="gPe9OrkZvvVKV1r3iufT-379" value="" style="group" vertex="1" connectable="0" parent="gPe9OrkZvvVKV1r3iufT-182">
          <mxGeometry x="20" y="200" width="120" height="70" as="geometry" />
        </mxCell>
        <mxCell id="gPe9OrkZvvVKV1r3iufT-380" value="COMPONENT" style="rounded=0;whiteSpace=wrap;html=1;fillColor=#ffe6cc;strokeColor=#d79b00;fixDash=0;movable=1;" vertex="1" parent="gPe9OrkZvvVKV1r3iufT-379">
          <mxGeometry width="120" height="20" as="geometry" />
        </mxCell>
        <mxCell id="gPe9OrkZvvVKV1r3iufT-381" value="ACTIVE PROMOTION" style="rounded=0;whiteSpace=wrap;html=1;fixDash=0;movable=1;" vertex="1" parent="gPe9OrkZvvVKV1r3iufT-379">
          <mxGeometry y="20" width="120" height="50" as="geometry" />
        </mxCell>
        <mxCell id="gPe9OrkZvvVKV1r3iufT-382" value="" style="group" vertex="1" connectable="0" parent="gPe9OrkZvvVKV1r3iufT-182">
          <mxGeometry x="150" y="200" width="120" height="70" as="geometry" />
        </mxCell>
        <mxCell id="gPe9OrkZvvVKV1r3iufT-383" value="COMPONENT" style="rounded=0;whiteSpace=wrap;html=1;fillColor=#ffe6cc;strokeColor=#d79b00;fixDash=0;movable=1;" vertex="1" parent="gPe9OrkZvvVKV1r3iufT-382">
          <mxGeometry width="120" height="20" as="geometry" />
        </mxCell>
        <mxCell id="gPe9OrkZvvVKV1r3iufT-384" value="FORMS OF CUPOM RESCUE" style="rounded=0;whiteSpace=wrap;html=1;fixDash=0;movable=1;" vertex="1" parent="gPe9OrkZvvVKV1r3iufT-382">
          <mxGeometry y="20" width="120" height="50" as="geometry" />
        </mxCell>
        <mxCell id="gPe9OrkZvvVKV1r3iufT-385" value="" style="group" vertex="1" connectable="0" parent="gPe9OrkZvvVKV1r3iufT-182">
          <mxGeometry x="280" y="200" width="120" height="70" as="geometry" />
        </mxCell>
        <mxCell id="gPe9OrkZvvVKV1r3iufT-386" value="COMPONENT" style="rounded=0;whiteSpace=wrap;html=1;fillColor=#ffe6cc;strokeColor=#d79b00;fixDash=0;movable=1;" vertex="1" parent="gPe9OrkZvvVKV1r3iufT-385">
          <mxGeometry width="120" height="20" as="geometry" />
        </mxCell>
        <mxCell id="gPe9OrkZvvVKV1r3iufT-387" value="SIMILAR &lt;br&gt;PRODUCTS" style="rounded=0;whiteSpace=wrap;html=1;fixDash=0;movable=1;" vertex="1" parent="gPe9OrkZvvVKV1r3iufT-385">
          <mxGeometry y="20" width="120" height="50" as="geometry" />
        </mxCell>
        <mxCell id="gPe9OrkZvvVKV1r3iufT-402" value="" style="group" vertex="1" connectable="0" parent="gPe9OrkZvvVKV1r3iufT-182">
          <mxGeometry x="410" y="200" width="120" height="70" as="geometry" />
        </mxCell>
        <mxCell id="gPe9OrkZvvVKV1r3iufT-403" value="COMPONENT" style="rounded=0;whiteSpace=wrap;html=1;fillColor=#ffe6cc;strokeColor=#d79b00;fixDash=0;movable=1;" vertex="1" parent="gPe9OrkZvvVKV1r3iufT-402">
          <mxGeometry width="120" height="20" as="geometry" />
        </mxCell>
        <mxCell id="gPe9OrkZvvVKV1r3iufT-404" value="ITENS CAROUSEL" style="rounded=0;whiteSpace=wrap;html=1;fixDash=0;movable=1;" vertex="1" parent="gPe9OrkZvvVKV1r3iufT-402">
          <mxGeometry y="20" width="120" height="50" as="geometry" />
        </mxCell>
        <mxCell id="gPe9OrkZvvVKV1r3iufT-601" value="" style="group" vertex="1" connectable="0" parent="gPe9OrkZvvVKV1r3iufT-182">
          <mxGeometry x="540" y="200" width="120" height="70" as="geometry" />
        </mxCell>
        <mxCell id="gPe9OrkZvvVKV1r3iufT-602" value="COMPONENT" style="rounded=0;whiteSpace=wrap;html=1;fillColor=#ffe6cc;strokeColor=#d79b00;fixDash=0;movable=1;" vertex="1" parent="gPe9OrkZvvVKV1r3iufT-601">
          <mxGeometry width="120" height="20" as="geometry" />
        </mxCell>
        <mxCell id="gPe9OrkZvvVKV1r3iufT-603" value="SHOPPING CART" style="rounded=0;whiteSpace=wrap;html=1;fixDash=0;movable=1;" vertex="1" parent="gPe9OrkZvvVKV1r3iufT-601">
          <mxGeometry y="20" width="120" height="50" as="geometry" />
        </mxCell>
        <mxCell id="gPe9OrkZvvVKV1r3iufT-183" value="CORE" style="swimlane;rounded=0;fillColor=#e51400;strokeColor=#B20000;fontColor=#ffffff;" vertex="1" parent="1">
          <mxGeometry x="35" y="230" width="730" height="520" as="geometry" />
        </mxCell>
        <mxCell id="gPe9OrkZvvVKV1r3iufT-226" value="SERVICES" style="swimlane;startSize=20;horizontal=1;containerType=tree;newEdgeStyle={&quot;edgeStyle&quot;:&quot;elbowEdgeStyle&quot;,&quot;startArrow&quot;:&quot;none&quot;,&quot;endArrow&quot;:&quot;none&quot;};fillColor=#d5e8d4;strokeColor=#82b366;" vertex="1" parent="gPe9OrkZvvVKV1r3iufT-183">
          <mxGeometry x="20" y="50" width="390" height="450" as="geometry" />
        </mxCell>
        <mxCell id="gPe9OrkZvvVKV1r3iufT-203" value="" style="group;fixDash=0;movable=1;" vertex="1" connectable="0" parent="gPe9OrkZvvVKV1r3iufT-226">
          <mxGeometry x="195" y="290" width="120" height="70" as="geometry" />
        </mxCell>
        <mxCell id="gPe9OrkZvvVKV1r3iufT-204" value="SERVICE" style="rounded=0;whiteSpace=wrap;html=1;fillColor=#d5e8d4;strokeColor=#82b366;fixDash=0;movable=1;" vertex="1" parent="gPe9OrkZvvVKV1r3iufT-203">
          <mxGeometry width="120" height="20" as="geometry" />
        </mxCell>
        <mxCell id="gPe9OrkZvvVKV1r3iufT-205" value="PAYMENT" style="rounded=0;whiteSpace=wrap;html=1;fixDash=0;movable=1;" vertex="1" parent="gPe9OrkZvvVKV1r3iufT-203">
          <mxGeometry y="20" width="120" height="50" as="geometry" />
        </mxCell>
        <mxCell id="gPe9OrkZvvVKV1r3iufT-236" style="edgeStyle=orthogonalEdgeStyle;orthogonalLoop=1;jettySize=auto;html=1;exitX=0.5;exitY=1;exitDx=0;exitDy=0;fixDash=0;movable=1;" edge="1" parent="gPe9OrkZvvVKV1r3iufT-203" source="gPe9OrkZvvVKV1r3iufT-204" target="gPe9OrkZvvVKV1r3iufT-204">
          <mxGeometry relative="1" as="geometry" />
        </mxCell>
        <mxCell id="gPe9OrkZvvVKV1r3iufT-238" value="" style="group;fixDash=0;movable=1;" vertex="1" connectable="0" parent="gPe9OrkZvvVKV1r3iufT-226">
          <mxGeometry x="60" y="130" width="120" height="70" as="geometry" />
        </mxCell>
        <mxCell id="gPe9OrkZvvVKV1r3iufT-239" value="SERVICE" style="rounded=0;whiteSpace=wrap;html=1;fillColor=#d5e8d4;strokeColor=#82b366;fixDash=0;movable=1;" vertex="1" parent="gPe9OrkZvvVKV1r3iufT-238">
          <mxGeometry width="120" height="20" as="geometry" />
        </mxCell>
        <mxCell id="gPe9OrkZvvVKV1r3iufT-240" value="AUTHENTICATION&amp;nbsp;" style="rounded=0;whiteSpace=wrap;html=1;fixDash=0;movable=1;" vertex="1" parent="gPe9OrkZvvVKV1r3iufT-238">
          <mxGeometry y="20" width="120" height="50" as="geometry" />
        </mxCell>
        <mxCell id="gPe9OrkZvvVKV1r3iufT-241" value="" style="group;fixDash=0;movable=1;" vertex="1" connectable="0" parent="gPe9OrkZvvVKV1r3iufT-226">
          <mxGeometry x="195" y="130" width="120" height="70" as="geometry" />
        </mxCell>
        <mxCell id="gPe9OrkZvvVKV1r3iufT-242" value="SERVICE" style="rounded=0;whiteSpace=wrap;html=1;fillColor=#d5e8d4;strokeColor=#82b366;fixDash=0;movable=1;" vertex="1" parent="gPe9OrkZvvVKV1r3iufT-241">
          <mxGeometry width="120" height="20" as="geometry" />
        </mxCell>
        <mxCell id="gPe9OrkZvvVKV1r3iufT-243" value="NOTIFICATION" style="rounded=0;whiteSpace=wrap;html=1;fixDash=0;movable=1;" vertex="1" parent="gPe9OrkZvvVKV1r3iufT-241">
          <mxGeometry y="20" width="120" height="50" as="geometry" />
        </mxCell>
        <mxCell id="gPe9OrkZvvVKV1r3iufT-247" value="" style="group;fixDash=0;movable=1;" vertex="1" connectable="0" parent="gPe9OrkZvvVKV1r3iufT-226">
          <mxGeometry x="195" y="210" width="120" height="70" as="geometry" />
        </mxCell>
        <mxCell id="gPe9OrkZvvVKV1r3iufT-248" value="SERVICE" style="rounded=0;whiteSpace=wrap;html=1;fillColor=#d5e8d4;strokeColor=#82b366;fixDash=0;movable=1;" vertex="1" parent="gPe9OrkZvvVKV1r3iufT-247">
          <mxGeometry width="120" height="20" as="geometry" />
        </mxCell>
        <mxCell id="gPe9OrkZvvVKV1r3iufT-249" value="FORMS" style="rounded=0;whiteSpace=wrap;html=1;fixDash=0;movable=1;" vertex="1" parent="gPe9OrkZvvVKV1r3iufT-247">
          <mxGeometry y="20" width="120" height="50" as="geometry" />
        </mxCell>
        <mxCell id="gPe9OrkZvvVKV1r3iufT-252" value="" style="group;fixDash=0;movable=1;" vertex="1" connectable="0" parent="gPe9OrkZvvVKV1r3iufT-226">
          <mxGeometry x="60" y="50" width="120" height="70" as="geometry" />
        </mxCell>
        <mxCell id="gPe9OrkZvvVKV1r3iufT-253" value="SERVICE" style="rounded=0;whiteSpace=wrap;html=1;fillColor=#d5e8d4;strokeColor=#82b366;fixDash=0;movable=1;" vertex="1" parent="gPe9OrkZvvVKV1r3iufT-252">
          <mxGeometry width="120" height="20" as="geometry" />
        </mxCell>
        <mxCell id="gPe9OrkZvvVKV1r3iufT-254" value="PRODUCTS CREATION" style="rounded=0;whiteSpace=wrap;html=1;fixDash=0;movable=1;" vertex="1" parent="gPe9OrkZvvVKV1r3iufT-252">
          <mxGeometry y="20" width="120" height="50" as="geometry" />
        </mxCell>
        <mxCell id="gPe9OrkZvvVKV1r3iufT-255" value="" style="group;fixDash=0;movable=1;" vertex="1" connectable="0" parent="gPe9OrkZvvVKV1r3iufT-226">
          <mxGeometry x="195" y="50" width="120" height="70" as="geometry" />
        </mxCell>
        <mxCell id="gPe9OrkZvvVKV1r3iufT-256" value="SERVICE" style="rounded=0;whiteSpace=wrap;html=1;fillColor=#d5e8d4;strokeColor=#82b366;fixDash=0;movable=1;" vertex="1" parent="gPe9OrkZvvVKV1r3iufT-255">
          <mxGeometry width="120" height="20" as="geometry" />
        </mxCell>
        <mxCell id="gPe9OrkZvvVKV1r3iufT-257" value="PRODUCTS INFO" style="rounded=0;whiteSpace=wrap;html=1;fixDash=0;movable=1;" vertex="1" parent="gPe9OrkZvvVKV1r3iufT-255">
          <mxGeometry y="20" width="120" height="50" as="geometry" />
        </mxCell>
        <mxCell id="gPe9OrkZvvVKV1r3iufT-223" value="" style="group;fixDash=0;movable=1;" vertex="1" connectable="0" parent="gPe9OrkZvvVKV1r3iufT-226">
          <mxGeometry x="60" y="210" width="120" height="70" as="geometry" />
        </mxCell>
        <mxCell id="gPe9OrkZvvVKV1r3iufT-224" value="SERVICE" style="rounded=0;whiteSpace=wrap;html=1;fillColor=#d5e8d4;strokeColor=#82b366;fixDash=0;movable=1;" vertex="1" parent="gPe9OrkZvvVKV1r3iufT-223">
          <mxGeometry width="120" height="17.14" as="geometry" />
        </mxCell>
        <mxCell id="gPe9OrkZvvVKV1r3iufT-225" value="COMMENT" style="rounded=0;whiteSpace=wrap;html=1;fixDash=0;movable=1;" vertex="1" parent="gPe9OrkZvvVKV1r3iufT-223">
          <mxGeometry y="17.14" width="120" height="52.86" as="geometry" />
        </mxCell>
        <mxCell id="gPe9OrkZvvVKV1r3iufT-220" value="" style="group;fixDash=0;movable=1;" vertex="1" connectable="0" parent="gPe9OrkZvvVKV1r3iufT-226">
          <mxGeometry x="60" y="290" width="120" height="70" as="geometry" />
        </mxCell>
        <mxCell id="gPe9OrkZvvVKV1r3iufT-221" value="SERVICE" style="rounded=0;whiteSpace=wrap;html=1;fillColor=#d5e8d4;strokeColor=#82b366;fixDash=0;movable=1;" vertex="1" parent="gPe9OrkZvvVKV1r3iufT-220">
          <mxGeometry width="120" height="20" as="geometry" />
        </mxCell>
        <mxCell id="gPe9OrkZvvVKV1r3iufT-222" value="EMAIL" style="rounded=0;whiteSpace=wrap;html=1;fixDash=0;movable=1;" vertex="1" parent="gPe9OrkZvvVKV1r3iufT-220">
          <mxGeometry y="20" width="120" height="50" as="geometry" />
        </mxCell>
        <mxCell id="gPe9OrkZvvVKV1r3iufT-330" value="SERVICE" style="rounded=0;whiteSpace=wrap;html=1;fillColor=#d5e8d4;strokeColor=#82b366;fixDash=0;movable=1;" vertex="1" parent="gPe9OrkZvvVKV1r3iufT-226">
          <mxGeometry x="60" y="370" width="120" height="20" as="geometry" />
        </mxCell>
        <mxCell id="gPe9OrkZvvVKV1r3iufT-331" value="SHOOPING CART" style="rounded=0;whiteSpace=wrap;html=1;fixDash=0;movable=1;" vertex="1" parent="gPe9OrkZvvVKV1r3iufT-226">
          <mxGeometry x="60" y="390" width="120" height="50" as="geometry" />
        </mxCell>
        <mxCell id="gPe9OrkZvvVKV1r3iufT-267" value="INTERCEPTORS" style="swimlane;startSize=20;horizontal=1;containerType=tree;newEdgeStyle={&quot;edgeStyle&quot;:&quot;elbowEdgeStyle&quot;,&quot;startArrow&quot;:&quot;none&quot;,&quot;endArrow&quot;:&quot;none&quot;};fillColor=#fff2cc;strokeColor=#d6b656;" vertex="1" parent="gPe9OrkZvvVKV1r3iufT-183">
          <mxGeometry x="440" y="50" width="250" height="130" as="geometry" />
        </mxCell>
        <mxCell id="gPe9OrkZvvVKV1r3iufT-264" value="" style="group" vertex="1" connectable="0" parent="gPe9OrkZvvVKV1r3iufT-267">
          <mxGeometry x="60" y="40" width="120" height="70" as="geometry" />
        </mxCell>
        <mxCell id="gPe9OrkZvvVKV1r3iufT-265" value="INTERCEPTORS" style="rounded=0;whiteSpace=wrap;html=1;fillColor=#fff2cc;strokeColor=#d6b656;" vertex="1" parent="gPe9OrkZvvVKV1r3iufT-264">
          <mxGeometry width="120" height="20" as="geometry" />
        </mxCell>
        <mxCell id="gPe9OrkZvvVKV1r3iufT-266" value="PROCESS PAYMENT INTER." style="rounded=0;whiteSpace=wrap;html=1;" vertex="1" parent="gPe9OrkZvvVKV1r3iufT-264">
          <mxGeometry y="20" width="120" height="50" as="geometry" />
        </mxCell>
        <mxCell id="gPe9OrkZvvVKV1r3iufT-298" value="GUARDS" style="swimlane;startSize=20;horizontal=1;containerType=tree;newEdgeStyle={&quot;edgeStyle&quot;:&quot;elbowEdgeStyle&quot;,&quot;startArrow&quot;:&quot;none&quot;,&quot;endArrow&quot;:&quot;none&quot;};fillColor=#e1d5e7;strokeColor=#9673a6;" vertex="1" parent="gPe9OrkZvvVKV1r3iufT-183">
          <mxGeometry x="440" y="200" width="250" height="240" as="geometry" />
        </mxCell>
        <mxCell id="gPe9OrkZvvVKV1r3iufT-261" value="" style="group" vertex="1" connectable="0" parent="gPe9OrkZvvVKV1r3iufT-298">
          <mxGeometry x="60" y="40" width="120" height="70" as="geometry" />
        </mxCell>
        <mxCell id="gPe9OrkZvvVKV1r3iufT-262" value="GUARD" style="rounded=0;whiteSpace=wrap;html=1;fillColor=#e1d5e7;strokeColor=#9673a6;" vertex="1" parent="gPe9OrkZvvVKV1r3iufT-261">
          <mxGeometry width="120" height="20" as="geometry" />
        </mxCell>
        <mxCell id="gPe9OrkZvvVKV1r3iufT-263" value="ROLE GUARD" style="rounded=0;whiteSpace=wrap;html=1;" vertex="1" parent="gPe9OrkZvvVKV1r3iufT-261">
          <mxGeometry y="20" width="120" height="50" as="geometry" />
        </mxCell>
        <mxCell id="gPe9OrkZvvVKV1r3iufT-302" value="" style="group" vertex="1" connectable="0" parent="gPe9OrkZvvVKV1r3iufT-298">
          <mxGeometry x="60" y="130" width="120" height="70" as="geometry" />
        </mxCell>
        <mxCell id="gPe9OrkZvvVKV1r3iufT-303" value="GUARD" style="rounded=0;whiteSpace=wrap;html=1;fillColor=#e1d5e7;strokeColor=#9673a6;" vertex="1" parent="gPe9OrkZvvVKV1r3iufT-302">
          <mxGeometry width="120" height="20" as="geometry" />
        </mxCell>
        <mxCell id="gPe9OrkZvvVKV1r3iufT-304" value="AUTHENTICATION" style="rounded=0;whiteSpace=wrap;html=1;" vertex="1" parent="gPe9OrkZvvVKV1r3iufT-302">
          <mxGeometry y="20" width="120" height="50" as="geometry" />
        </mxCell>
        <mxCell id="gPe9OrkZvvVKV1r3iufT-184" value="SHARED" style="swimlane;rounded=0;fillColor=#ffcccc;strokeColor=#36393d;" vertex="1" parent="1">
          <mxGeometry x="10" y="810" width="730" height="290" as="geometry" />
        </mxCell>
        <mxCell id="gPe9OrkZvvVKV1r3iufT-305" value="COMPONENTS" style="swimlane;labelBackgroundColor=none;strokeColor=#d79b00;rounded=0;fillColor=#ffe6cc;" vertex="1" parent="gPe9OrkZvvVKV1r3iufT-184">
          <mxGeometry x="20" y="30" width="150" height="230" as="geometry" />
        </mxCell>
        <mxCell id="gPe9OrkZvvVKV1r3iufT-306" value="" style="group;fixDash=0;movable=1;fillColor=#ffe6cc;strokeColor=#d79b00;" vertex="1" connectable="0" parent="gPe9OrkZvvVKV1r3iufT-305">
          <mxGeometry x="10" y="40" width="120" height="70" as="geometry" />
        </mxCell>
        <mxCell id="gPe9OrkZvvVKV1r3iufT-307" value="COMPONENT" style="rounded=0;whiteSpace=wrap;html=1;fillColor=#ffe6cc;strokeColor=#d79b00;fixDash=0;movable=1;" vertex="1" parent="gPe9OrkZvvVKV1r3iufT-306">
          <mxGeometry width="120" height="20" as="geometry" />
        </mxCell>
        <mxCell id="gPe9OrkZvvVKV1r3iufT-308" value="NAVBAR" style="rounded=0;whiteSpace=wrap;html=1;fixDash=0;movable=1;" vertex="1" parent="gPe9OrkZvvVKV1r3iufT-306">
          <mxGeometry y="20" width="120" height="50" as="geometry" />
        </mxCell>
        <mxCell id="gPe9OrkZvvVKV1r3iufT-310" value="" style="group;fixDash=0;movable=1;fillColor=#ffe6cc;strokeColor=#d79b00;" vertex="1" connectable="0" parent="gPe9OrkZvvVKV1r3iufT-305">
          <mxGeometry x="10" y="130" width="120" height="70" as="geometry" />
        </mxCell>
        <mxCell id="gPe9OrkZvvVKV1r3iufT-311" value="COMPONENT" style="rounded=0;whiteSpace=wrap;html=1;fillColor=#ffe6cc;strokeColor=#d79b00;fixDash=0;movable=1;" vertex="1" parent="gPe9OrkZvvVKV1r3iufT-310">
          <mxGeometry width="120" height="20" as="geometry" />
        </mxCell>
        <mxCell id="gPe9OrkZvvVKV1r3iufT-312" value="FOOTER" style="rounded=0;whiteSpace=wrap;html=1;fixDash=0;movable=1;" vertex="1" parent="gPe9OrkZvvVKV1r3iufT-310">
          <mxGeometry y="20" width="120" height="50" as="geometry" />
        </mxCell>
        <mxCell id="gPe9OrkZvvVKV1r3iufT-313" value="MODELS" style="swimlane;labelBackgroundColor=none;strokeColor=#b85450;rounded=0;fillColor=#f8cecc;" vertex="1" parent="gPe9OrkZvvVKV1r3iufT-184">
          <mxGeometry x="180" y="30" width="530" height="230" as="geometry" />
        </mxCell>
        <mxCell id="gPe9OrkZvvVKV1r3iufT-314" value="" style="group;fixDash=0;movable=1;fillColor=#f8cecc;strokeColor=#b85450;" vertex="1" connectable="0" parent="gPe9OrkZvvVKV1r3iufT-313">
          <mxGeometry x="10" y="40" width="120" height="70" as="geometry" />
        </mxCell>
        <mxCell id="gPe9OrkZvvVKV1r3iufT-315" value="INTERFACE" style="rounded=0;whiteSpace=wrap;html=1;fillColor=#f8cecc;strokeColor=#b85450;fixDash=0;movable=1;" vertex="1" parent="gPe9OrkZvvVKV1r3iufT-314">
          <mxGeometry width="120" height="20" as="geometry" />
        </mxCell>
        <mxCell id="gPe9OrkZvvVKV1r3iufT-316" value="LOGIN" style="rounded=0;whiteSpace=wrap;html=1;fixDash=0;movable=1;" vertex="1" parent="gPe9OrkZvvVKV1r3iufT-314">
          <mxGeometry y="20" width="120" height="50" as="geometry" />
        </mxCell>
        <mxCell id="gPe9OrkZvvVKV1r3iufT-320" value="" style="group;fixDash=0;movable=1;fillColor=#f8cecc;strokeColor=#b85450;" vertex="1" connectable="0" parent="gPe9OrkZvvVKV1r3iufT-313">
          <mxGeometry x="140" y="40" width="120" height="70" as="geometry" />
        </mxCell>
        <mxCell id="gPe9OrkZvvVKV1r3iufT-321" value="INTERFACE" style="rounded=0;whiteSpace=wrap;html=1;fillColor=#f8cecc;strokeColor=#b85450;fixDash=0;movable=1;" vertex="1" parent="gPe9OrkZvvVKV1r3iufT-320">
          <mxGeometry width="120" height="20" as="geometry" />
        </mxCell>
        <mxCell id="gPe9OrkZvvVKV1r3iufT-322" value="LOGIN RESPONSE&amp;nbsp;" style="rounded=0;whiteSpace=wrap;html=1;fixDash=0;movable=1;" vertex="1" parent="gPe9OrkZvvVKV1r3iufT-320">
          <mxGeometry y="20" width="120" height="50" as="geometry" />
        </mxCell>
        <mxCell id="gPe9OrkZvvVKV1r3iufT-324" value="" style="group;fixDash=0;movable=1;fillColor=#f8cecc;strokeColor=#b85450;" vertex="1" connectable="0" parent="gPe9OrkZvvVKV1r3iufT-313">
          <mxGeometry x="270" y="40" width="120" height="70" as="geometry" />
        </mxCell>
        <mxCell id="gPe9OrkZvvVKV1r3iufT-325" value="INTERFACE" style="rounded=0;whiteSpace=wrap;html=1;fillColor=#f8cecc;strokeColor=#b85450;fixDash=0;movable=1;" vertex="1" parent="gPe9OrkZvvVKV1r3iufT-324">
          <mxGeometry width="120" height="20" as="geometry" />
        </mxCell>
        <mxCell id="gPe9OrkZvvVKV1r3iufT-326" value="PRODUCTS" style="rounded=0;whiteSpace=wrap;html=1;fixDash=0;movable=1;" vertex="1" parent="gPe9OrkZvvVKV1r3iufT-324">
          <mxGeometry y="20" width="120" height="50" as="geometry" />
        </mxCell>
        <mxCell id="gPe9OrkZvvVKV1r3iufT-327" value="" style="group;fixDash=0;movable=1;fillColor=#f8cecc;strokeColor=#b85450;" vertex="1" connectable="0" parent="gPe9OrkZvvVKV1r3iufT-313">
          <mxGeometry x="140" y="120" width="120" height="70" as="geometry" />
        </mxCell>
        <mxCell id="gPe9OrkZvvVKV1r3iufT-328" value="INTERFACE" style="rounded=0;whiteSpace=wrap;html=1;fillColor=#f8cecc;strokeColor=#b85450;fixDash=0;movable=1;" vertex="1" parent="gPe9OrkZvvVKV1r3iufT-327">
          <mxGeometry width="120" height="20" as="geometry" />
        </mxCell>
        <mxCell id="gPe9OrkZvvVKV1r3iufT-329" value="PAYMENT" style="rounded=0;whiteSpace=wrap;html=1;fixDash=0;movable=1;" vertex="1" parent="gPe9OrkZvvVKV1r3iufT-327">
          <mxGeometry y="20" width="120" height="50" as="geometry" />
        </mxCell>
        <mxCell id="gPe9OrkZvvVKV1r3iufT-332" value="" style="group;fixDash=0;movable=1;fillColor=#f8cecc;strokeColor=#b85450;" vertex="1" connectable="0" parent="gPe9OrkZvvVKV1r3iufT-313">
          <mxGeometry x="10" y="120" width="120" height="70" as="geometry" />
        </mxCell>
        <mxCell id="gPe9OrkZvvVKV1r3iufT-333" value="INTERFACE" style="rounded=0;whiteSpace=wrap;html=1;fillColor=#f8cecc;strokeColor=#b85450;fixDash=0;movable=1;" vertex="1" parent="gPe9OrkZvvVKV1r3iufT-332">
          <mxGeometry width="120" height="20" as="geometry" />
        </mxCell>
        <mxCell id="gPe9OrkZvvVKV1r3iufT-334" value="FORMS&amp;nbsp;" style="rounded=0;whiteSpace=wrap;html=1;fixDash=0;movable=1;" vertex="1" parent="gPe9OrkZvvVKV1r3iufT-332">
          <mxGeometry y="20" width="120" height="50" as="geometry" />
        </mxCell>
        <mxCell id="gPe9OrkZvvVKV1r3iufT-336" value="" style="group;fixDash=0;movable=1;fillColor=#f8cecc;strokeColor=#b85450;" vertex="1" connectable="0" parent="gPe9OrkZvvVKV1r3iufT-313">
          <mxGeometry x="400" y="40" width="120" height="70" as="geometry" />
        </mxCell>
        <mxCell id="gPe9OrkZvvVKV1r3iufT-337" value="INTERFACE" style="rounded=0;whiteSpace=wrap;html=1;fillColor=#f8cecc;strokeColor=#b85450;fixDash=0;movable=1;" vertex="1" parent="gPe9OrkZvvVKV1r3iufT-336">
          <mxGeometry width="120" height="20" as="geometry" />
        </mxCell>
        <mxCell id="gPe9OrkZvvVKV1r3iufT-338" value="PRODUCTS CART" style="rounded=0;whiteSpace=wrap;html=1;fixDash=0;movable=1;" vertex="1" parent="gPe9OrkZvvVKV1r3iufT-336">
          <mxGeometry y="20" width="120" height="50" as="geometry" />
        </mxCell>
        <mxCell id="gPe9OrkZvvVKV1r3iufT-339" value="" style="group;fixDash=0;movable=1;fillColor=#f8cecc;strokeColor=#b85450;" vertex="1" connectable="0" parent="gPe9OrkZvvVKV1r3iufT-313">
          <mxGeometry x="270" y="120" width="120" height="70" as="geometry" />
        </mxCell>
        <mxCell id="gPe9OrkZvvVKV1r3iufT-340" value="INTERFACE" style="rounded=0;whiteSpace=wrap;html=1;fillColor=#f8cecc;strokeColor=#b85450;fixDash=0;movable=1;" vertex="1" parent="gPe9OrkZvvVKV1r3iufT-339">
          <mxGeometry width="120" height="20" as="geometry" />
        </mxCell>
        <mxCell id="gPe9OrkZvvVKV1r3iufT-341" value="PRODUCTS CARD" style="rounded=0;whiteSpace=wrap;html=1;fixDash=0;movable=1;" vertex="1" parent="gPe9OrkZvvVKV1r3iufT-339">
          <mxGeometry y="20" width="120" height="50" as="geometry" />
        </mxCell>
        <mxCell id="gPe9OrkZvvVKV1r3iufT-185" value="PAGES" style="swimlane;rounded=0;" vertex="1" parent="1">
          <mxGeometry x="10" y="1440" width="890" height="930" as="geometry" />
        </mxCell>
        <mxCell id="gPe9OrkZvvVKV1r3iufT-395" value="HOME" style="swimlane;rounded=0;" vertex="1" parent="gPe9OrkZvvVKV1r3iufT-185">
          <mxGeometry x="25" y="40" width="165" height="850" as="geometry" />
        </mxCell>
        <mxCell id="gPe9OrkZvvVKV1r3iufT-396" value="" style="group;fixDash=0;movable=1;fillColor=#ffe6cc;strokeColor=#d79b00;imageVerticalAlign=middle;" vertex="1" connectable="0" parent="gPe9OrkZvvVKV1r3iufT-395">
          <mxGeometry x="20" y="40" width="120" height="70" as="geometry" />
        </mxCell>
        <mxCell id="gPe9OrkZvvVKV1r3iufT-397" value="COMPONENT" style="rounded=0;whiteSpace=wrap;html=1;fillColor=#ffe6cc;strokeColor=#d79b00;fixDash=0;movable=1;imageVerticalAlign=middle;" vertex="1" parent="gPe9OrkZvvVKV1r3iufT-396">
          <mxGeometry width="120" height="20" as="geometry" />
        </mxCell>
        <mxCell id="gPe9OrkZvvVKV1r3iufT-398" value="NAVBAR" style="rounded=0;whiteSpace=wrap;html=1;fixDash=0;movable=1;imageVerticalAlign=middle;" vertex="1" parent="gPe9OrkZvvVKV1r3iufT-396">
          <mxGeometry y="20" width="120" height="50" as="geometry" />
        </mxCell>
        <mxCell id="gPe9OrkZvvVKV1r3iufT-399" value="" style="group;imageVerticalAlign=middle;" vertex="1" connectable="0" parent="gPe9OrkZvvVKV1r3iufT-395">
          <mxGeometry x="20" y="120" width="120" height="70" as="geometry" />
        </mxCell>
        <mxCell id="gPe9OrkZvvVKV1r3iufT-400" value="COMPONENT" style="rounded=0;whiteSpace=wrap;html=1;fillColor=#ffe6cc;strokeColor=#d79b00;fixDash=0;movable=1;imageVerticalAlign=middle;" vertex="1" parent="gPe9OrkZvvVKV1r3iufT-399">
          <mxGeometry width="120" height="20" as="geometry" />
        </mxCell>
        <mxCell id="gPe9OrkZvvVKV1r3iufT-401" value="PRODUCTS DIVISION BAR" style="rounded=0;whiteSpace=wrap;html=1;fixDash=0;movable=1;imageVerticalAlign=middle;" vertex="1" parent="gPe9OrkZvvVKV1r3iufT-399">
          <mxGeometry y="20" width="120" height="50" as="geometry" />
        </mxCell>
        <mxCell id="gPe9OrkZvvVKV1r3iufT-405" value="" style="group;imageVerticalAlign=middle;" vertex="1" connectable="0" parent="gPe9OrkZvvVKV1r3iufT-395">
          <mxGeometry x="20" y="200" width="120" height="70" as="geometry" />
        </mxCell>
        <mxCell id="gPe9OrkZvvVKV1r3iufT-406" value="COMPONENT" style="rounded=0;whiteSpace=wrap;html=1;fillColor=#ffe6cc;strokeColor=#d79b00;fixDash=0;movable=1;imageVerticalAlign=middle;" vertex="1" parent="gPe9OrkZvvVKV1r3iufT-405">
          <mxGeometry width="120" height="20" as="geometry" />
        </mxCell>
        <mxCell id="gPe9OrkZvvVKV1r3iufT-407" value="ITENS CAROUSEL" style="rounded=0;whiteSpace=wrap;html=1;fixDash=0;movable=1;imageVerticalAlign=middle;" vertex="1" parent="gPe9OrkZvvVKV1r3iufT-405">
          <mxGeometry y="20" width="120" height="50" as="geometry" />
        </mxCell>
        <mxCell id="gPe9OrkZvvVKV1r3iufT-408" value="" style="group;imageVerticalAlign=middle;" vertex="1" connectable="0" parent="gPe9OrkZvvVKV1r3iufT-395">
          <mxGeometry x="22.5" y="280" width="120" height="70" as="geometry" />
        </mxCell>
        <mxCell id="gPe9OrkZvvVKV1r3iufT-409" value="COMPONENT" style="rounded=0;whiteSpace=wrap;html=1;fillColor=#ffe6cc;strokeColor=#d79b00;fixDash=0;movable=1;imageVerticalAlign=middle;" vertex="1" parent="gPe9OrkZvvVKV1r3iufT-408">
          <mxGeometry width="120" height="20" as="geometry" />
        </mxCell>
        <mxCell id="gPe9OrkZvvVKV1r3iufT-410" value="CAROUSEL &lt;br&gt;IPHONE&amp;nbsp;" style="rounded=0;whiteSpace=wrap;html=1;fixDash=0;movable=1;imageVerticalAlign=middle;" vertex="1" parent="gPe9OrkZvvVKV1r3iufT-408">
          <mxGeometry y="20" width="120" height="50" as="geometry" />
        </mxCell>
        <mxCell id="gPe9OrkZvvVKV1r3iufT-411" value="" style="group;imageVerticalAlign=middle;" vertex="1" connectable="0" parent="gPe9OrkZvvVKV1r3iufT-395">
          <mxGeometry x="22.5" y="360" width="120" height="70" as="geometry" />
        </mxCell>
        <mxCell id="gPe9OrkZvvVKV1r3iufT-412" value="COMPONENT" style="rounded=0;whiteSpace=wrap;html=1;fillColor=#ffe6cc;strokeColor=#d79b00;fixDash=0;movable=1;imageVerticalAlign=middle;" vertex="1" parent="gPe9OrkZvvVKV1r3iufT-411">
          <mxGeometry width="120" height="20" as="geometry" />
        </mxCell>
        <mxCell id="gPe9OrkZvvVKV1r3iufT-413" value="IN PROMOTION&lt;br&gt;PREVIEW" style="rounded=0;whiteSpace=wrap;html=1;fixDash=0;movable=1;imageVerticalAlign=middle;" vertex="1" parent="gPe9OrkZvvVKV1r3iufT-411">
          <mxGeometry y="20" width="120" height="50" as="geometry" />
        </mxCell>
        <mxCell id="gPe9OrkZvvVKV1r3iufT-414" value="" style="group;imageVerticalAlign=middle;" vertex="1" connectable="0" parent="gPe9OrkZvvVKV1r3iufT-395">
          <mxGeometry x="20" y="440" width="120" height="70" as="geometry" />
        </mxCell>
        <mxCell id="gPe9OrkZvvVKV1r3iufT-415" value="COMPONENT" style="rounded=0;whiteSpace=wrap;html=1;fillColor=#ffe6cc;strokeColor=#d79b00;fixDash=0;movable=1;imageVerticalAlign=middle;" vertex="1" parent="gPe9OrkZvvVKV1r3iufT-414">
          <mxGeometry width="120" height="20" as="geometry" />
        </mxCell>
        <mxCell id="gPe9OrkZvvVKV1r3iufT-416" value="PRODUCTS APPLE CAROUSEL" style="rounded=0;whiteSpace=wrap;html=1;fixDash=0;movable=1;imageVerticalAlign=middle;" vertex="1" parent="gPe9OrkZvvVKV1r3iufT-414">
          <mxGeometry y="20" width="120" height="50" as="geometry" />
        </mxCell>
        <mxCell id="gPe9OrkZvvVKV1r3iufT-417" value="" style="group;imageVerticalAlign=middle;" vertex="1" connectable="0" parent="gPe9OrkZvvVKV1r3iufT-395">
          <mxGeometry x="20" y="520" width="120" height="70" as="geometry" />
        </mxCell>
        <mxCell id="gPe9OrkZvvVKV1r3iufT-418" value="COMPONENT" style="rounded=0;whiteSpace=wrap;html=1;fillColor=#ffe6cc;strokeColor=#d79b00;fixDash=0;movable=1;imageVerticalAlign=middle;" vertex="1" parent="gPe9OrkZvvVKV1r3iufT-417">
          <mxGeometry width="120" height="20" as="geometry" />
        </mxCell>
        <mxCell id="gPe9OrkZvvVKV1r3iufT-419" value="OUTLET PREVIEW" style="rounded=0;whiteSpace=wrap;html=1;fixDash=0;movable=1;imageVerticalAlign=middle;" vertex="1" parent="gPe9OrkZvvVKV1r3iufT-417">
          <mxGeometry y="20" width="120" height="50" as="geometry" />
        </mxCell>
        <mxCell id="gPe9OrkZvvVKV1r3iufT-420" value="" style="group" vertex="1" connectable="0" parent="gPe9OrkZvvVKV1r3iufT-395">
          <mxGeometry x="22.5" y="600" width="120" height="70" as="geometry" />
        </mxCell>
        <mxCell id="gPe9OrkZvvVKV1r3iufT-421" value="COMPONENT" style="rounded=0;whiteSpace=wrap;html=1;fillColor=#ffe6cc;strokeColor=#d79b00;fixDash=0;movable=1;" vertex="1" parent="gPe9OrkZvvVKV1r3iufT-420">
          <mxGeometry width="120" height="20" as="geometry" />
        </mxCell>
        <mxCell id="gPe9OrkZvvVKV1r3iufT-422" value="PRODUCTS AUDIO CAROUSEL" style="rounded=0;whiteSpace=wrap;html=1;fixDash=0;movable=1;" vertex="1" parent="gPe9OrkZvvVKV1r3iufT-420">
          <mxGeometry y="20" width="120" height="50" as="geometry" />
        </mxCell>
        <mxCell id="gPe9OrkZvvVKV1r3iufT-423" value="" style="group" vertex="1" connectable="0" parent="gPe9OrkZvvVKV1r3iufT-395">
          <mxGeometry x="20" y="680" width="120" height="70" as="geometry" />
        </mxCell>
        <mxCell id="gPe9OrkZvvVKV1r3iufT-424" value="COMPONENT" style="rounded=0;whiteSpace=wrap;html=1;fillColor=#ffe6cc;strokeColor=#d79b00;fixDash=0;movable=1;" vertex="1" parent="gPe9OrkZvvVKV1r3iufT-423">
          <mxGeometry width="120" height="20" as="geometry" />
        </mxCell>
        <mxCell id="gPe9OrkZvvVKV1r3iufT-425" value="ITENS CAROUSEL" style="rounded=0;whiteSpace=wrap;html=1;fixDash=0;movable=1;" vertex="1" parent="gPe9OrkZvvVKV1r3iufT-423">
          <mxGeometry y="20" width="120" height="50" as="geometry" />
        </mxCell>
        <mxCell id="gPe9OrkZvvVKV1r3iufT-426" value="" style="group;fixDash=0;movable=1;fillColor=#ffe6cc;strokeColor=#d79b00;" vertex="1" connectable="0" parent="gPe9OrkZvvVKV1r3iufT-395">
          <mxGeometry x="20" y="760" width="120" height="70" as="geometry" />
        </mxCell>
        <mxCell id="gPe9OrkZvvVKV1r3iufT-427" value="COMPONENT" style="rounded=0;whiteSpace=wrap;html=1;fillColor=#ffe6cc;strokeColor=#d79b00;fixDash=0;movable=1;" vertex="1" parent="gPe9OrkZvvVKV1r3iufT-426">
          <mxGeometry width="120" height="20" as="geometry" />
        </mxCell>
        <mxCell id="gPe9OrkZvvVKV1r3iufT-428" value="FOOTER" style="rounded=0;whiteSpace=wrap;html=1;fixDash=0;movable=1;" vertex="1" parent="gPe9OrkZvvVKV1r3iufT-426">
          <mxGeometry y="20" width="120" height="50" as="geometry" />
        </mxCell>
        <mxCell id="gPe9OrkZvvVKV1r3iufT-429" value="PRODUCT DETAIL" style="swimlane;rounded=0;" vertex="1" parent="gPe9OrkZvvVKV1r3iufT-185">
          <mxGeometry x="200" y="40" width="165" height="480" as="geometry" />
        </mxCell>
        <mxCell id="gPe9OrkZvvVKV1r3iufT-430" value="" style="group;fixDash=0;movable=1;fillColor=#ffe6cc;strokeColor=#d79b00;imageVerticalAlign=middle;" vertex="1" connectable="0" parent="gPe9OrkZvvVKV1r3iufT-429">
          <mxGeometry x="20" y="40" width="120" height="70" as="geometry" />
        </mxCell>
        <mxCell id="gPe9OrkZvvVKV1r3iufT-431" value="COMPONENT" style="rounded=0;whiteSpace=wrap;html=1;fillColor=#ffe6cc;strokeColor=#d79b00;fixDash=0;movable=1;imageVerticalAlign=middle;" vertex="1" parent="gPe9OrkZvvVKV1r3iufT-430">
          <mxGeometry width="120" height="20" as="geometry" />
        </mxCell>
        <mxCell id="gPe9OrkZvvVKV1r3iufT-432" value="NAVBAR" style="rounded=0;whiteSpace=wrap;html=1;fixDash=0;movable=1;imageVerticalAlign=middle;" vertex="1" parent="gPe9OrkZvvVKV1r3iufT-430">
          <mxGeometry y="20" width="120" height="50" as="geometry" />
        </mxCell>
        <mxCell id="gPe9OrkZvvVKV1r3iufT-433" value="" style="group;imageVerticalAlign=middle;" vertex="1" connectable="0" parent="gPe9OrkZvvVKV1r3iufT-429">
          <mxGeometry x="20" y="120" width="120" height="70" as="geometry" />
        </mxCell>
        <mxCell id="gPe9OrkZvvVKV1r3iufT-434" value="COMPONENT" style="rounded=0;whiteSpace=wrap;html=1;fillColor=#ffe6cc;strokeColor=#d79b00;fixDash=0;movable=1;imageVerticalAlign=middle;" vertex="1" parent="gPe9OrkZvvVKV1r3iufT-433">
          <mxGeometry width="120" height="20" as="geometry" />
        </mxCell>
        <mxCell id="gPe9OrkZvvVKV1r3iufT-435" value="PRODUCTS DIVISION BAR" style="rounded=0;whiteSpace=wrap;html=1;fixDash=0;movable=1;imageVerticalAlign=middle;" vertex="1" parent="gPe9OrkZvvVKV1r3iufT-433">
          <mxGeometry y="20" width="120" height="50" as="geometry" />
        </mxCell>
        <mxCell id="gPe9OrkZvvVKV1r3iufT-457" value="" style="group;fixDash=0;movable=1;fillColor=#ffe6cc;strokeColor=#d79b00;" vertex="1" connectable="0" parent="gPe9OrkZvvVKV1r3iufT-429">
          <mxGeometry x="20" y="380" width="120" height="70" as="geometry" />
        </mxCell>
        <mxCell id="gPe9OrkZvvVKV1r3iufT-458" value="COMPONENT" style="rounded=0;whiteSpace=wrap;html=1;fillColor=#ffe6cc;strokeColor=#d79b00;fixDash=0;movable=1;" vertex="1" parent="gPe9OrkZvvVKV1r3iufT-457">
          <mxGeometry width="120" height="20" as="geometry" />
        </mxCell>
        <mxCell id="gPe9OrkZvvVKV1r3iufT-459" value="FOOTER" style="rounded=0;whiteSpace=wrap;html=1;fixDash=0;movable=1;" vertex="1" parent="gPe9OrkZvvVKV1r3iufT-457">
          <mxGeometry y="20" width="120" height="50" as="geometry" />
        </mxCell>
        <mxCell id="gPe9OrkZvvVKV1r3iufT-460" value="" style="group" vertex="1" connectable="0" parent="gPe9OrkZvvVKV1r3iufT-429">
          <mxGeometry x="20" y="210" width="120" height="70" as="geometry" />
        </mxCell>
        <mxCell id="gPe9OrkZvvVKV1r3iufT-461" value="COMPONENT" style="rounded=0;whiteSpace=wrap;html=1;fillColor=#ffe6cc;strokeColor=#d79b00;fixDash=0;movable=1;" vertex="1" parent="gPe9OrkZvvVKV1r3iufT-460">
          <mxGeometry width="120" height="20" as="geometry" />
        </mxCell>
        <mxCell id="gPe9OrkZvvVKV1r3iufT-462" value="PRODUCTS COMPLET INFO" style="rounded=0;whiteSpace=wrap;html=1;fixDash=0;movable=1;" vertex="1" parent="gPe9OrkZvvVKV1r3iufT-460">
          <mxGeometry y="20" width="120" height="50" as="geometry" />
        </mxCell>
        <mxCell id="gPe9OrkZvvVKV1r3iufT-463" value="" style="group" vertex="1" connectable="0" parent="gPe9OrkZvvVKV1r3iufT-429">
          <mxGeometry x="20" y="300" width="120" height="70" as="geometry" />
        </mxCell>
        <mxCell id="gPe9OrkZvvVKV1r3iufT-464" value="COMPONENT" style="rounded=0;whiteSpace=wrap;html=1;fillColor=#ffe6cc;strokeColor=#d79b00;fixDash=0;movable=1;" vertex="1" parent="gPe9OrkZvvVKV1r3iufT-463">
          <mxGeometry width="120" height="20" as="geometry" />
        </mxCell>
        <mxCell id="gPe9OrkZvvVKV1r3iufT-465" value="SIMILAR &lt;br&gt;PRODUCTS" style="rounded=0;whiteSpace=wrap;html=1;fixDash=0;movable=1;" vertex="1" parent="gPe9OrkZvvVKV1r3iufT-463">
          <mxGeometry y="20" width="120" height="50" as="geometry" />
        </mxCell>
        <mxCell id="gPe9OrkZvvVKV1r3iufT-186" value="INTERCEPTORS" style="rounded=0;whiteSpace=wrap;html=1;fillColor=#fff2cc;strokeColor=#d6b656;" vertex="1" parent="1">
          <mxGeometry x="10" y="180" width="210" height="40" as="geometry" />
        </mxCell>
        <mxCell id="gPe9OrkZvvVKV1r3iufT-198" value="MODULO" style="rounded=0;whiteSpace=wrap;html=1;fillColor=#bac8d3;strokeColor=#23445d;" vertex="1" parent="1">
          <mxGeometry x="10" y="-70" width="210" height="40" as="geometry" />
        </mxCell>
        <mxCell id="gPe9OrkZvvVKV1r3iufT-199" value="BACK-END" style="rounded=0;whiteSpace=wrap;html=1;fillColor=#b1ddf0;strokeColor=#10739e;" vertex="1" parent="1">
          <mxGeometry x="10" y="-120" width="210" height="40" as="geometry" />
        </mxCell>
        <mxCell id="gPe9OrkZvvVKV1r3iufT-389" value="" style="line;strokeWidth=4;html=1;perimeter=backbonePerimeter;points=[];outlineConnect=0;strokeColor=#e01515;" vertex="1" parent="1">
          <mxGeometry x="35" y="145" width="160" height="10" as="geometry" />
        </mxCell>
        <mxCell id="gPe9OrkZvvVKV1r3iufT-390" value="" style="line;strokeWidth=4;html=1;perimeter=backbonePerimeter;points=[];outlineConnect=0;strokeColor=#e01515;" vertex="1" parent="1">
          <mxGeometry x="35" y="45" width="160" height="10" as="geometry" />
        </mxCell>
        <mxCell id="gPe9OrkZvvVKV1r3iufT-391" value="" style="line;strokeWidth=4;html=1;perimeter=backbonePerimeter;points=[];outlineConnect=0;strokeColor=#e01515;" vertex="1" parent="1">
          <mxGeometry x="45" y="-5" width="160" height="10" as="geometry" />
        </mxCell>
        <mxCell id="gPe9OrkZvvVKV1r3iufT-392" value="" style="line;strokeWidth=4;html=1;perimeter=backbonePerimeter;points=[];outlineConnect=0;strokeColor=#e01515;" vertex="1" parent="1">
          <mxGeometry x="35" y="95" width="160" height="10" as="geometry" />
        </mxCell>
        <mxCell id="gPe9OrkZvvVKV1r3iufT-394" value="" style="line;strokeWidth=4;html=1;perimeter=backbonePerimeter;points=[];outlineConnect=0;strokeColor=#e01515;" vertex="1" parent="1">
          <mxGeometry x="45" y="195" width="160" height="10" as="geometry" />
        </mxCell>
        <mxCell id="gPe9OrkZvvVKV1r3iufT-466" value="AUTHENTICATION FLUX" style="swimlane;rounded=0;fillColor=#e51400;strokeColor=#B20000;fontColor=#ffffff;" vertex="1" parent="1">
          <mxGeometry x="1030" y="-480" width="640" height="490" as="geometry" />
        </mxCell>
        <mxCell id="gPe9OrkZvvVKV1r3iufT-506" value="" style="group;fixDash=0;movable=1;fillColor=#ffe6cc;strokeColor=#d79b00;" vertex="1" connectable="0" parent="gPe9OrkZvvVKV1r3iufT-466">
          <mxGeometry x="80" y="60" width="120" height="70" as="geometry" />
        </mxCell>
        <mxCell id="gPe9OrkZvvVKV1r3iufT-507" value="" style="group" vertex="1" connectable="0" parent="gPe9OrkZvvVKV1r3iufT-506">
          <mxGeometry width="120" height="70" as="geometry" />
        </mxCell>
        <mxCell id="gPe9OrkZvvVKV1r3iufT-508" value="COMPONENT" style="rounded=0;whiteSpace=wrap;html=1;fillColor=#ffe6cc;strokeColor=#d79b00;fixDash=0;movable=1;" vertex="1" parent="gPe9OrkZvvVKV1r3iufT-507">
          <mxGeometry width="120" height="20" as="geometry" />
        </mxCell>
        <mxCell id="gPe9OrkZvvVKV1r3iufT-509" value="LOGIN" style="rounded=0;whiteSpace=wrap;html=1;fixDash=0;movable=1;" vertex="1" parent="gPe9OrkZvvVKV1r3iufT-507">
          <mxGeometry y="20" width="120" height="50" as="geometry" />
        </mxCell>
        <mxCell id="gPe9OrkZvvVKV1r3iufT-519" style="edgeStyle=orthogonalEdgeStyle;orthogonalLoop=1;jettySize=auto;html=1;exitX=0;exitY=0.5;exitDx=0;exitDy=0;entryX=0;entryY=0.5;entryDx=0;entryDy=0;" edge="1" parent="gPe9OrkZvvVKV1r3iufT-466" source="gPe9OrkZvvVKV1r3iufT-511" target="gPe9OrkZvvVKV1r3iufT-515">
          <mxGeometry relative="1" as="geometry" />
        </mxCell>
        <mxCell id="gPe9OrkZvvVKV1r3iufT-511" value="BACK-END" style="rounded=0;whiteSpace=wrap;html=1;fillColor=#b1ddf0;strokeColor=#10739e;" vertex="1" parent="gPe9OrkZvvVKV1r3iufT-466">
          <mxGeometry x="80" y="340" width="120" height="70" as="geometry" />
        </mxCell>
        <mxCell id="gPe9OrkZvvVKV1r3iufT-513" value="" style="group;fixDash=0;movable=1;" vertex="1" connectable="0" parent="gPe9OrkZvvVKV1r3iufT-466">
          <mxGeometry x="80" y="210" width="120" height="70" as="geometry" />
        </mxCell>
        <mxCell id="gPe9OrkZvvVKV1r3iufT-514" value="SERVICE" style="rounded=0;whiteSpace=wrap;html=1;fillColor=#d5e8d4;strokeColor=#82b366;fixDash=0;movable=1;" vertex="1" parent="gPe9OrkZvvVKV1r3iufT-513">
          <mxGeometry width="120" height="20" as="geometry" />
        </mxCell>
        <mxCell id="gPe9OrkZvvVKV1r3iufT-524" style="edgeStyle=orthogonalEdgeStyle;orthogonalLoop=1;jettySize=auto;html=1;exitX=1;exitY=0.5;exitDx=0;exitDy=0;" edge="1" parent="gPe9OrkZvvVKV1r3iufT-513" source="gPe9OrkZvvVKV1r3iufT-515">
          <mxGeometry relative="1" as="geometry">
            <mxPoint x="190" y="44.66666666666697" as="targetPoint" />
          </mxGeometry>
        </mxCell>
        <mxCell id="gPe9OrkZvvVKV1r3iufT-515" value="AUTHENTICATION&amp;nbsp;" style="rounded=0;whiteSpace=wrap;html=1;fixDash=0;movable=1;" vertex="1" parent="gPe9OrkZvvVKV1r3iufT-513">
          <mxGeometry y="20" width="120" height="50" as="geometry" />
        </mxCell>
        <mxCell id="gPe9OrkZvvVKV1r3iufT-516" style="edgeStyle=orthogonalEdgeStyle;orthogonalLoop=1;jettySize=auto;html=1;exitX=0.75;exitY=1;exitDx=0;exitDy=0;entryX=0.75;entryY=0;entryDx=0;entryDy=0;" edge="1" parent="gPe9OrkZvvVKV1r3iufT-466" source="gPe9OrkZvvVKV1r3iufT-515" target="gPe9OrkZvvVKV1r3iufT-511">
          <mxGeometry relative="1" as="geometry" />
        </mxCell>
        <mxCell id="gPe9OrkZvvVKV1r3iufT-518" style="edgeStyle=orthogonalEdgeStyle;orthogonalLoop=1;jettySize=auto;html=1;exitX=0.25;exitY=1;exitDx=0;exitDy=0;entryX=0.25;entryY=0;entryDx=0;entryDy=0;" edge="1" parent="gPe9OrkZvvVKV1r3iufT-466" source="gPe9OrkZvvVKV1r3iufT-509" target="gPe9OrkZvvVKV1r3iufT-514">
          <mxGeometry relative="1" as="geometry" />
        </mxCell>
        <mxCell id="gPe9OrkZvvVKV1r3iufT-521" value="" style="group" vertex="1" connectable="0" parent="gPe9OrkZvvVKV1r3iufT-466">
          <mxGeometry x="270" y="210" width="120" height="70" as="geometry" />
        </mxCell>
        <mxCell id="gPe9OrkZvvVKV1r3iufT-522" value="GUARD" style="rounded=0;whiteSpace=wrap;html=1;fillColor=#e1d5e7;strokeColor=#9673a6;" vertex="1" parent="gPe9OrkZvvVKV1r3iufT-521">
          <mxGeometry width="120" height="20" as="geometry" />
        </mxCell>
        <mxCell id="gPe9OrkZvvVKV1r3iufT-523" value="AUTHENTICATION" style="rounded=0;whiteSpace=wrap;html=1;" vertex="1" parent="gPe9OrkZvvVKV1r3iufT-521">
          <mxGeometry y="20" width="120" height="50" as="geometry" />
        </mxCell>
        <mxCell id="gPe9OrkZvvVKV1r3iufT-526" value="HOME PAGE" style="swimlane;rounded=0;" vertex="1" parent="gPe9OrkZvvVKV1r3iufT-466">
          <mxGeometry x="400" y="50" width="165" height="100" as="geometry" />
        </mxCell>
        <mxCell id="gPe9OrkZvvVKV1r3iufT-557" value="LOGIN PAGE" style="swimlane;rounded=0;" vertex="1" parent="gPe9OrkZvvVKV1r3iufT-466">
          <mxGeometry x="57.5" y="30" width="165" height="110" as="geometry" />
        </mxCell>
        <mxCell id="gPe9OrkZvvVKV1r3iufT-558" value="" style="group;fixDash=0;movable=1;fillColor=#ffe6cc;strokeColor=#d79b00;" vertex="1" connectable="0" parent="gPe9OrkZvvVKV1r3iufT-466">
          <mxGeometry x="432.5" y="330" width="120" height="70" as="geometry" />
        </mxCell>
        <mxCell id="gPe9OrkZvvVKV1r3iufT-559" value="" style="group" vertex="1" connectable="0" parent="gPe9OrkZvvVKV1r3iufT-558">
          <mxGeometry width="120" height="70" as="geometry" />
        </mxCell>
        <mxCell id="gPe9OrkZvvVKV1r3iufT-560" value="COMPONENT" style="rounded=0;whiteSpace=wrap;html=1;fillColor=#ffe6cc;strokeColor=#d79b00;fixDash=0;movable=1;" vertex="1" parent="gPe9OrkZvvVKV1r3iufT-559">
          <mxGeometry width="120" height="20" as="geometry" />
        </mxCell>
        <mxCell id="gPe9OrkZvvVKV1r3iufT-561" value="LOGIN" style="rounded=0;whiteSpace=wrap;html=1;fixDash=0;movable=1;" vertex="1" parent="gPe9OrkZvvVKV1r3iufT-559">
          <mxGeometry y="20" width="120" height="50" as="geometry" />
        </mxCell>
        <mxCell id="gPe9OrkZvvVKV1r3iufT-562" value="LOGIN PAGE" style="swimlane;rounded=0;" vertex="1" parent="gPe9OrkZvvVKV1r3iufT-466">
          <mxGeometry x="410" y="300" width="165" height="110" as="geometry" />
        </mxCell>
        <mxCell id="gPe9OrkZvvVKV1r3iufT-564" style="edgeStyle=orthogonalEdgeStyle;orthogonalLoop=1;jettySize=auto;html=1;exitX=0.505;exitY=1.004;exitDx=0;exitDy=0;entryX=0;entryY=0.5;entryDx=0;entryDy=0;exitPerimeter=0;" edge="1" parent="gPe9OrkZvvVKV1r3iufT-466" source="gPe9OrkZvvVKV1r3iufT-566" target="gPe9OrkZvvVKV1r3iufT-562">
          <mxGeometry relative="1" as="geometry" />
        </mxCell>
        <mxCell id="gPe9OrkZvvVKV1r3iufT-565" value="&lt;span style=&quot;font-size: 8px;&quot;&gt;yes&lt;/span&gt;" style="html=1;whiteSpace=wrap;aspect=fixed;shape=isoRectangle;" vertex="1" parent="gPe9OrkZvvVKV1r3iufT-466">
          <mxGeometry x="327" y="150" width="63" height="37.8" as="geometry" />
        </mxCell>
        <mxCell id="gPe9OrkZvvVKV1r3iufT-566" value="&lt;font style=&quot;font-size: 9px;&quot;&gt;no&lt;/font&gt;" style="html=1;whiteSpace=wrap;aspect=fixed;shape=isoRectangle;" vertex="1" parent="gPe9OrkZvvVKV1r3iufT-466">
          <mxGeometry x="327" y="292.2" width="63" height="37.8" as="geometry" />
        </mxCell>
        <mxCell id="gPe9OrkZvvVKV1r3iufT-568" style="edgeStyle=orthogonalEdgeStyle;orthogonalLoop=1;jettySize=auto;html=1;exitX=0.75;exitY=1;exitDx=0;exitDy=0;entryX=0.501;entryY=0.027;entryDx=0;entryDy=0;entryPerimeter=0;" edge="1" parent="gPe9OrkZvvVKV1r3iufT-466" source="gPe9OrkZvvVKV1r3iufT-523" target="gPe9OrkZvvVKV1r3iufT-566">
          <mxGeometry relative="1" as="geometry" />
        </mxCell>
        <mxCell id="gPe9OrkZvvVKV1r3iufT-569" style="edgeStyle=orthogonalEdgeStyle;orthogonalLoop=1;jettySize=auto;html=1;exitX=0.75;exitY=0;exitDx=0;exitDy=0;entryX=0.507;entryY=1.072;entryDx=0;entryDy=0;entryPerimeter=0;" edge="1" parent="gPe9OrkZvvVKV1r3iufT-466" source="gPe9OrkZvvVKV1r3iufT-522" target="gPe9OrkZvvVKV1r3iufT-565">
          <mxGeometry relative="1" as="geometry" />
        </mxCell>
        <mxCell id="gPe9OrkZvvVKV1r3iufT-571" style="edgeStyle=orthogonalEdgeStyle;orthogonalLoop=1;jettySize=auto;html=1;exitX=0.487;exitY=-0.006;exitDx=0;exitDy=0;entryX=0;entryY=0.5;entryDx=0;entryDy=0;exitPerimeter=0;" edge="1" parent="gPe9OrkZvvVKV1r3iufT-466" source="gPe9OrkZvvVKV1r3iufT-565" target="gPe9OrkZvvVKV1r3iufT-526">
          <mxGeometry relative="1" as="geometry" />
        </mxCell>
        <mxCell id="gPe9OrkZvvVKV1r3iufT-572" value="BUY FLUX" style="swimlane;rounded=0;fillColor=#e51400;strokeColor=#B20000;fontColor=#ffffff;" vertex="1" parent="1">
          <mxGeometry x="320" y="-490" width="640" height="490" as="geometry" />
        </mxCell>
        <mxCell id="gPe9OrkZvvVKV1r3iufT-589" value="PAY PAGE" style="swimlane;rounded=0;" vertex="1" parent="gPe9OrkZvvVKV1r3iufT-572">
          <mxGeometry x="57.5" y="30" width="165" height="110" as="geometry" />
        </mxCell>
        <mxCell id="gPe9OrkZvvVKV1r3iufT-604" value="" style="group" vertex="1" connectable="0" parent="gPe9OrkZvvVKV1r3iufT-589">
          <mxGeometry x="22.5" y="30" width="120" height="70" as="geometry" />
        </mxCell>
        <mxCell id="gPe9OrkZvvVKV1r3iufT-605" value="COMPONENT" style="rounded=0;whiteSpace=wrap;html=1;fillColor=#ffe6cc;strokeColor=#d79b00;fixDash=0;movable=1;" vertex="1" parent="gPe9OrkZvvVKV1r3iufT-604">
          <mxGeometry width="120" height="20" as="geometry" />
        </mxCell>
        <mxCell id="gPe9OrkZvvVKV1r3iufT-606" value="SHOPPING CART" style="rounded=0;whiteSpace=wrap;html=1;fixDash=0;movable=1;" vertex="1" parent="gPe9OrkZvvVKV1r3iufT-604">
          <mxGeometry y="20" width="120" height="50" as="geometry" />
        </mxCell>
        <mxCell id="gPe9OrkZvvVKV1r3iufT-610" value="&lt;font style=&quot;font-size: 9px;&quot;&gt;FINALIZE ORDER&lt;/font&gt;" style="shape=ext;double=1;rounded=1;whiteSpace=wrap;html=1;" vertex="1" parent="gPe9OrkZvvVKV1r3iufT-572">
          <mxGeometry x="64.5" y="170" width="102.5" height="40" as="geometry" />
        </mxCell>
        <mxCell id="gPe9OrkZvvVKV1r3iufT-611" style="edgeStyle=orthogonalEdgeStyle;orthogonalLoop=1;jettySize=auto;html=1;exitX=0.5;exitY=1;exitDx=0;exitDy=0;entryX=0.5;entryY=0;entryDx=0;entryDy=0;" edge="1" parent="gPe9OrkZvvVKV1r3iufT-572" source="gPe9OrkZvvVKV1r3iufT-606" target="gPe9OrkZvvVKV1r3iufT-610">
          <mxGeometry relative="1" as="geometry">
            <mxPoint x="120" y="158" as="targetPoint" />
            <Array as="points">
              <mxPoint x="140" y="150" />
              <mxPoint x="120" y="150" />
              <mxPoint x="120" y="158" />
              <mxPoint x="116" y="158" />
            </Array>
          </mxGeometry>
        </mxCell>
        <mxCell id="gPe9OrkZvvVKV1r3iufT-619" value="" style="group" vertex="1" connectable="0" parent="gPe9OrkZvvVKV1r3iufT-572">
          <mxGeometry x="64.5" y="250" width="120" height="70" as="geometry" />
        </mxCell>
        <mxCell id="gPe9OrkZvvVKV1r3iufT-620" value="GUARD" style="rounded=0;whiteSpace=wrap;html=1;fillColor=#e1d5e7;strokeColor=#9673a6;" vertex="1" parent="gPe9OrkZvvVKV1r3iufT-619">
          <mxGeometry width="120" height="20" as="geometry" />
        </mxCell>
        <mxCell id="gPe9OrkZvvVKV1r3iufT-621" value="AUTHENTICATION" style="rounded=0;whiteSpace=wrap;html=1;" vertex="1" parent="gPe9OrkZvvVKV1r3iufT-619">
          <mxGeometry y="20" width="120" height="50" as="geometry" />
        </mxCell>
        <mxCell id="gPe9OrkZvvVKV1r3iufT-636" style="edgeStyle=orthogonalEdgeStyle;orthogonalLoop=1;jettySize=auto;html=1;exitX=1;exitY=0.5;exitDx=0;exitDy=0;entryX=0;entryY=0.25;entryDx=0;entryDy=0;" edge="1" parent="gPe9OrkZvvVKV1r3iufT-572" source="gPe9OrkZvvVKV1r3iufT-627" target="gPe9OrkZvvVKV1r3iufT-621">
          <mxGeometry relative="1" as="geometry">
            <Array as="points">
              <mxPoint x="465" y="405" />
              <mxPoint x="465" y="470" />
              <mxPoint x="45" y="470" />
              <mxPoint x="45" y="283" />
            </Array>
          </mxGeometry>
        </mxCell>
        <mxCell id="gPe9OrkZvvVKV1r3iufT-627" value="LOGIN PAGE" style="swimlane;rounded=0;" vertex="1" parent="gPe9OrkZvvVKV1r3iufT-572">
          <mxGeometry x="280" y="350" width="165" height="110" as="geometry" />
        </mxCell>
        <mxCell id="gPe9OrkZvvVKV1r3iufT-623" value="" style="group;fixDash=0;movable=1;fillColor=#ffe6cc;strokeColor=#d79b00;" vertex="1" connectable="0" parent="gPe9OrkZvvVKV1r3iufT-627">
          <mxGeometry x="20" y="30" width="120" height="70" as="geometry" />
        </mxCell>
        <mxCell id="gPe9OrkZvvVKV1r3iufT-624" value="" style="group" vertex="1" connectable="0" parent="gPe9OrkZvvVKV1r3iufT-623">
          <mxGeometry width="120" height="70" as="geometry" />
        </mxCell>
        <mxCell id="gPe9OrkZvvVKV1r3iufT-625" value="COMPONENT" style="rounded=0;whiteSpace=wrap;html=1;fillColor=#ffe6cc;strokeColor=#d79b00;fixDash=0;movable=1;" vertex="1" parent="gPe9OrkZvvVKV1r3iufT-624">
          <mxGeometry width="120" height="20" as="geometry" />
        </mxCell>
        <mxCell id="gPe9OrkZvvVKV1r3iufT-626" value="LOGIN" style="rounded=0;whiteSpace=wrap;html=1;fixDash=0;movable=1;" vertex="1" parent="gPe9OrkZvvVKV1r3iufT-624">
          <mxGeometry y="20" width="120" height="50" as="geometry" />
        </mxCell>
        <mxCell id="gPe9OrkZvvVKV1r3iufT-628" style="edgeStyle=orthogonalEdgeStyle;orthogonalLoop=1;jettySize=auto;html=1;exitX=0.505;exitY=1.004;exitDx=0;exitDy=0;entryX=0;entryY=0.5;entryDx=0;entryDy=0;exitPerimeter=0;" edge="1" parent="gPe9OrkZvvVKV1r3iufT-572" source="gPe9OrkZvvVKV1r3iufT-630" target="gPe9OrkZvvVKV1r3iufT-627">
          <mxGeometry relative="1" as="geometry" />
        </mxCell>
        <mxCell id="gPe9OrkZvvVKV1r3iufT-629" value="&lt;span style=&quot;font-size: 8px;&quot;&gt;yes&lt;/span&gt;" style="html=1;whiteSpace=wrap;aspect=fixed;shape=isoRectangle;" vertex="1" parent="gPe9OrkZvvVKV1r3iufT-572">
          <mxGeometry x="184.5" y="190" width="63" height="37.8" as="geometry" />
        </mxCell>
        <mxCell id="gPe9OrkZvvVKV1r3iufT-630" value="&lt;font style=&quot;font-size: 9px;&quot;&gt;no&lt;/font&gt;" style="html=1;whiteSpace=wrap;aspect=fixed;shape=isoRectangle;" vertex="1" parent="gPe9OrkZvvVKV1r3iufT-572">
          <mxGeometry x="184.5" y="340" width="63" height="37.8" as="geometry" />
        </mxCell>
        <mxCell id="gPe9OrkZvvVKV1r3iufT-633" style="edgeStyle=orthogonalEdgeStyle;orthogonalLoop=1;jettySize=auto;html=1;exitX=0.487;exitY=-0.006;exitDx=0;exitDy=0;entryX=0;entryY=0.5;entryDx=0;entryDy=0;exitPerimeter=0;" edge="1" parent="gPe9OrkZvvVKV1r3iufT-572" source="gPe9OrkZvvVKV1r3iufT-629" target="gPe9OrkZvvVKV1r3iufT-642">
          <mxGeometry relative="1" as="geometry">
            <mxPoint x="280" y="170" as="targetPoint" />
          </mxGeometry>
        </mxCell>
        <mxCell id="gPe9OrkZvvVKV1r3iufT-638" style="edgeStyle=orthogonalEdgeStyle;orthogonalLoop=1;jettySize=auto;html=1;exitX=1;exitY=0.75;exitDx=0;exitDy=0;" edge="1" parent="gPe9OrkZvvVKV1r3iufT-572" source="gPe9OrkZvvVKV1r3iufT-621">
          <mxGeometry relative="1" as="geometry">
            <mxPoint x="216" y="340" as="targetPoint" />
          </mxGeometry>
        </mxCell>
        <mxCell id="gPe9OrkZvvVKV1r3iufT-639" style="edgeStyle=orthogonalEdgeStyle;orthogonalLoop=1;jettySize=auto;html=1;exitX=1;exitY=0.25;exitDx=0;exitDy=0;entryX=0.493;entryY=1.091;entryDx=0;entryDy=0;entryPerimeter=0;" edge="1" parent="gPe9OrkZvvVKV1r3iufT-572" source="gPe9OrkZvvVKV1r3iufT-621" target="gPe9OrkZvvVKV1r3iufT-629">
          <mxGeometry relative="1" as="geometry" />
        </mxCell>
        <mxCell id="gPe9OrkZvvVKV1r3iufT-640" value="" style="group;fixDash=0;movable=1;" vertex="1" connectable="0" parent="gPe9OrkZvvVKV1r3iufT-572">
          <mxGeometry x="290" y="120" width="120" height="70" as="geometry" />
        </mxCell>
        <mxCell id="gPe9OrkZvvVKV1r3iufT-641" value="SERVICE" style="rounded=0;whiteSpace=wrap;html=1;fillColor=#d5e8d4;strokeColor=#82b366;fixDash=0;movable=1;" vertex="1" parent="gPe9OrkZvvVKV1r3iufT-640">
          <mxGeometry width="120" height="20" as="geometry" />
        </mxCell>
        <mxCell id="gPe9OrkZvvVKV1r3iufT-642" value="PAYMENT" style="rounded=0;whiteSpace=wrap;html=1;fixDash=0;movable=1;" vertex="1" parent="gPe9OrkZvvVKV1r3iufT-640">
          <mxGeometry y="20" width="120" height="50" as="geometry" />
        </mxCell>
        <mxCell id="gPe9OrkZvvVKV1r3iufT-643" style="edgeStyle=orthogonalEdgeStyle;orthogonalLoop=1;jettySize=auto;html=1;exitX=0.5;exitY=1;exitDx=0;exitDy=0;fixDash=0;movable=1;" edge="1" parent="gPe9OrkZvvVKV1r3iufT-640" source="gPe9OrkZvvVKV1r3iufT-641" target="gPe9OrkZvvVKV1r3iufT-641">
          <mxGeometry relative="1" as="geometry" />
        </mxCell>
        <mxCell id="gPe9OrkZvvVKV1r3iufT-644" value="" style="group" vertex="1" connectable="0" parent="gPe9OrkZvvVKV1r3iufT-572">
          <mxGeometry x="430" y="120" width="120" height="70" as="geometry" />
        </mxCell>
        <mxCell id="gPe9OrkZvvVKV1r3iufT-645" value="INTERCEPTORS" style="rounded=0;whiteSpace=wrap;html=1;fillColor=#fff2cc;strokeColor=#d6b656;" vertex="1" parent="gPe9OrkZvvVKV1r3iufT-644">
          <mxGeometry width="120" height="20" as="geometry" />
        </mxCell>
        <mxCell id="gPe9OrkZvvVKV1r3iufT-646" value="PROCESS PAYMENT INTER." style="rounded=0;whiteSpace=wrap;html=1;" vertex="1" parent="gPe9OrkZvvVKV1r3iufT-644">
          <mxGeometry y="20" width="120" height="50" as="geometry" />
        </mxCell>
        <mxCell id="gPe9OrkZvvVKV1r3iufT-647" style="edgeStyle=orthogonalEdgeStyle;orthogonalLoop=1;jettySize=auto;html=1;exitX=1;exitY=0.5;exitDx=0;exitDy=0;entryX=0;entryY=0.5;entryDx=0;entryDy=0;" edge="1" parent="gPe9OrkZvvVKV1r3iufT-572" source="gPe9OrkZvvVKV1r3iufT-642" target="gPe9OrkZvvVKV1r3iufT-646">
          <mxGeometry relative="1" as="geometry" />
        </mxCell>
        <mxCell id="gPe9OrkZvvVKV1r3iufT-584" style="edgeStyle=orthogonalEdgeStyle;orthogonalLoop=1;jettySize=auto;html=1;exitX=0.61;exitY=1;exitDx=0;exitDy=0;exitPerimeter=0;" edge="1" parent="1" source="gPe9OrkZvvVKV1r3iufT-610">
          <mxGeometry relative="1" as="geometry">
            <mxPoint x="450" y="-280" as="sourcePoint" />
            <mxPoint x="450" y="-240" as="targetPoint" />
            <Array as="points" />
          </mxGeometry>
        </mxCell>
      </root>
    </mxGraphModel>
  </diagram>
</mxfile>
